# xmcd
#
# Track frame offsets: 
#        150
#        18790
#        30070
#        47103
#        56760
#        67740
#        103738
#        116955
#
# Disc length: 1699 seconds
#
# Revision: 3
# Processed by: cddbd v1.5.2PL0 Copyright (c) Steve Scherf et al.
# Submitted via: ExactAudioCopy v0.99pb4
#
DISCID=5e06a108
DTITLE=Elvis Presley - Memories Of Christmas
DYEAR=1987
DGENRE=Christmas
TTITLE0=O Come, All Ye Faithful
TTITLE1=Silver Bells
TTITLE2=I'll Be Home On Christmas Day
TTITLE3=Blue Christmas
TTITLE4=Santa Claus Is Back in Town
TTITLE5=Merry Christmas Baby
TTITLE6=If Every Day Was Like Christmas
TTITLE7=Christmas Message From Elvis/Silent Night
EXTD=
EXTT0=
EXTT1=
EXTT2=
EXTT3=
EXTT4=
EXTT5=
EXTT6=
EXTT7=
PLAYORDER=
